PathFileType	4	(X/Y/Z)	TRC_missing_Z7
DataRate	CameraRate	NumFrames	NumMarkers	Units	OrigDataRate	OrigDataStartFrame	OrigNumFrames
100.00	100.00	       6	45	mm	100.00	1631	       2609
Frame#	Time	T10			C7			CLAV			RACR1			LACR1			RPSI			LPSI			RASI			LASI			LTH2			LTH3			LTH1			RTH2			RTH3			RTH1			RLFC			RTB1			RTB3			RTB2			LLFC			LTB1			LTB3			LTB2			LLMAL			LCAL			RLMAL			RCAL			RMT5			RMT1			LMT5			LMT1			*31			*32			*33			*34			*35			*36			*37			*38			*39			*40			*41			*42			*43			*44			
		X1	Y1	Z1	X2	Y2	Z2	X3	Y3	Z3	X4	Y4	Z4	X5	Y5	Z5	X6	Y6	Z6	X7	Y7	X8	Y8	Z8	X9	Y9	Z9	X10	Y10	Z10	X11	Y11	Z11	X12	Y12	Z12	X13	Y13	Z13	X14	Y14	Z14	X15	Y15	Z15	X16	Y16	Z16	X17	Y17	Z17	X18	Y18	Z18	X19	Y19	Z19	X20	Y20	Z20	X21	Y21	Z21	X22	Y22	Z22	X23	Y23	Z23	X24	Y24	Z24	X25	Y25	Z25	X26	Y26	Z26	X27	Y27	Z27	X28	Y28	Z28	X29	Y29	Z29	X30	Y30	Z30	X31	Y31	Z31	X32	Y32	Z32	X33	Y33	Z33	X34	Y34	Z34	X35	Y35	Z35	X36	Y36	Z36	X37	Y37	Z37	X38	Y38	Z38	X39	Y39	Z39	X40	Y40	Z40	X41	Y41	Z41	X42	Y42	Z42	X43	Y43	Z43	X44	Y44	Z44	X45	Y45	Z45	
1631	16.300000	704.914246	1229.827637	-463.184814	694.132263	1486.641724	-342.189026	705.620056	1330.891479	-241.849625	536.343933	1430.242798	-314.060394	874.373474	1433.182251	-328.207611	643.360596	1018.332703	-534.435486	731.766174	1020.169556	-533.641724	573.401978	978.477539	-304.537933	827.279236	972.438477	-303.726349	860.445740	698.242371	-343.930756	892.435974	762.186340	-383.601868	852.932983	840.129639	-321.629272	574.376343	720.710022	-257.632721	524.916992	780.081726	-300.098541	592.635376	835.582520	-268.900970	569.356567	500.562744	-298.893677	618.321777	389.501740	-268.754700	593.775330	313.858978	-300.804443	619.276245	262.577179	-301.789062	856.896667	491.333099	-444.518433	818.120911	374.584686	-474.670685	840.151611	344.591156	-542.638611	804.778442	296.289185	-566.916321	813.532104	202.200211	-752.808044	755.723328	219.269302	-807.333374	604.618835	75.699905	-379.454010	644.365967	35.489361	-446.490570	609.820984	43.826145	-271.032288	686.977478	51.772846	-250.408386	831.065369	71.343536	-737.219971	766.691162	61.314022	-705.821533	925.843689	1067.632935	408.578369	921.510864	1055.132690	409.821350	0.000000	0.000000	0.000000	0.000000	0.000000	0.000000	0.000000	0.000000	0.000000	0.000000	0.000000	0.000000	0.000000	0.000000	0.000000	-18.059999	12.093030	-1119.634155	1151.582275	12.613840	-1033.589233	-0.764958	11.980013	0.844656	1167.719238	12.577722	85.341805	0.000000	0.000000	0.000000	0.000000	0.000000	0.000000	0.000000	0.000000	0.000000	
1632	16.310000	703.451904	1230.566650	-462.895691	692.858215	1487.437744	-341.988831	704.778809	1331.821411	-241.684418	535.247742	1431.106445	-313.367767	873.235596	1434.183350	-328.670258	642.237671	1019.221985	-533.986389	730.650146	1020.660156	-533.364075	572.344299	979.370422	-303.925812	826.241638	973.346497	-303.443481	861.000183	699.857849	-340.065826	892.109985	762.812805	-381.954071	852.154846	841.700317	-320.269165	573.458313	719.835449	-259.939362	523.990112	779.920105	-301.496887	591.436646	835.113708	-269.392761	568.871216	500.070953	-304.248688	617.959167	388.719482	-275.078339	593.463379	313.209167	-307.548584	619.075195	261.993011	-308.840759	857.252014	491.625092	-435.713135	818.819397	375.010895	-465.653687	840.308716	345.611664	-534.206604	805.046326	297.417969	-558.720337	812.916504	205.013489	-745.513733	754.627319	222.451935	-799.713989	604.592468	75.652649	-387.587585	644.270508	35.632725	-454.731323	609.451782	43.825306	-279.164734	686.819702	51.629589	-258.310883	830.905762	73.977318	-730.947083	766.875061	62.973713	-699.317932	925.718262	1067.363770	408.572693	921.512817	1055.146729	409.747162	922.419006	1056.277222	474.269043	0.000000	0.000000	0.000000	0.000000	0.000000	0.000000	0.000000	0.000000	0.000000	0.000000	0.000000	0.000000	-18.060030	12.092843	-1119.634033	1151.582397	12.613850	-1033.589111	-0.765016	11.980006	0.844466	1167.719360	12.577766	85.341805	0.000000	0.000000	0.000000	0.000000	0.000000	0.000000	0.000000	0.000000	0.000000	
1633	16.320000	702.044128	1231.258179	-462.690277	691.667908	1488.173828	-341.846527	704.019348	1332.669922	-241.596588	534.234070	1431.920044	-312.744202	872.180359	1435.089722	-329.209900	641.197083	1020.040649	-533.661682	729.612732	1021.097778	-533.192993	571.294373	980.190308	-303.453491	825.214233	974.205322	-303.244781	861.704834	701.419495	-336.281403	891.837830	763.479675	-380.246246	851.396423	843.279297	-318.976105	572.574585	718.911682	-262.407410	523.097534	779.688232	-303.070709	590.257324	834.573853	-270.041443	568.423523	499.574097	-309.734558	617.630920	387.963409	-281.484741	593.187317	312.577026	-314.331329	618.922485	261.430267	-315.924652	857.579529	492.017578	-426.740601	819.407715	375.514709	-456.294312	840.401855	346.558258	-525.330078	805.176025	298.455292	-550.023438	812.234863	207.288116	-737.496704	753.525208	224.766693	-791.521484	604.616455	75.629280	-395.698700	644.225159	35.778904	-462.943481	609.108093	43.847992	-287.287231	686.682861	51.504440	-266.185059	830.798218	76.420036	-723.173706	767.098999	64.586487	-691.239502	925.625366	1067.164307	408.568512	921.514404	1055.158325	409.685913	922.401428	1056.255005	474.301758	0.000000	0.000000	0.000000	0.000000	0.000000	0.000000	0.000000	0.000000	0.000000	0.000000	0.000000	0.000000	-18.060061	12.092657	-1119.633789	1151.582397	12.613859	-1033.589111	-0.765074	11.980000	0.844277	1167.719482	12.577812	85.341805	0.000000	0.000000	0.000000	0.000000	0.000000	0.000000	0.000000	0.000000	0.000000	
1634	16.330000	700.692200	1231.895630	-462.567474	690.561584	1488.843872	-341.760986	703.340759	1333.429932	-241.584671	533.302124	1432.676025	-312.189240	871.207275	1435.893677	-329.825165	640.241577	1020.782532	-533.459290	728.657043	1021.478149	-533.125732	570.254761	980.928589	-303.119629	824.198853	975.007751	-303.129456	862.556763	702.899841	-332.594696	891.608093	764.207092	-378.408783	850.655884	844.858765	-317.751648	571.736023	717.940674	-265.018066	522.247620	779.384094	-304.803986	589.106323	833.962036	-270.837280	568.017639	499.069336	-315.327728	617.344238	387.227783	-287.959106	592.952698	311.958130	-321.142639	618.823914	260.883270	-323.035675	857.869080	492.517822	-417.639709	819.878662	376.101288	-446.628204	840.428955	347.427917	-516.039917	805.168213	299.392517	-540.845337	811.497192	208.985748	-728.772644	752.426819	226.177216	-782.767944	604.692200	75.627304	-403.797943	644.230225	35.929970	-471.142700	608.795776	43.884212	-295.412964	686.572571	51.384338	-274.044922	830.741882	78.615715	-713.928101	767.360962	66.110878	-681.613953	925.568298	1067.041748	408.565979	921.515503	1055.166016	409.644867	922.385498	1056.234863	474.331421	925.273376	1067.685303	346.952881	0.000000	0.000000	0.000000	0.000000	0.000000	0.000000	0.000000	0.000000	0.000000	-18.060093	12.092473	-1119.633667	1151.582520	12.613869	-1033.589111	-0.765133	11.979994	0.844088	1167.719604	12.577861	85.341805	0.000000	0.000000	0.000000	0.000000	0.000000	0.000000	0.000000	0.000000	0.000000	
1635	16.340000	699.396973	1232.473389	-462.525269	689.538940	1489.441772	-341.730316	702.741455	1334.095947	-241.646347	532.450684	1433.367432	-311.701355	870.315369	1436.588989	-330.513916	639.373291	1021.442749	-533.376038	727.785400	1021.797729	-533.158630	569.228271	981.577759	-302.921417	823.197571	975.747253	-303.096069	863.542236	704.278015	-329.018005	891.409668	765.013916	-376.378021	849.931824	846.431091	-316.596466	570.951965	716.924622	-267.752838	521.447693	779.006836	-306.679962	587.992004	833.277893	-271.769867	567.656555	498.554016	-321.006012	617.104614	386.506927	-294.488007	592.763489	311.348358	-327.974060	618.783081	260.346588	-330.169586	858.111694	493.131165	-408.448914	820.227966	376.774780	-436.691284	840.389893	348.218628	-506.368073	805.028076	300.222046	-531.206848	810.716187	210.076370	-719.357300	751.343262	226.661438	-773.460266	604.819275	75.644089	-411.894623	644.284546	36.087158	-479.342224	608.518738	43.926193	-303.552917	686.492615	51.259621	-281.902832	830.736328	80.514259	-703.258057	767.659485	67.507874	-670.490540	925.543213	1066.987915	408.564880	921.515991	1055.169678	409.625702	922.372925	1056.218994	474.354828	925.273376	1067.685303	346.952942	0.000000	0.000000	0.000000	0.000000	0.000000	0.000000	0.000000	0.000000	0.000000	-18.060125	12.092291	-1119.633423	1151.582642	12.613878	-1033.588989	-0.765192	11.979988	0.843900	1167.719727	12.577910	85.341805	0.000000	0.000000	0.000000	0.000000	0.000000	0.000000	0.000000	0.000000	0.000000	
1636	16.350000	698.159058	1232.986328	-462.560791	688.599304	1489.962646	-341.752045	702.219299	1334.663330	-241.778503	531.677917	1433.987915	-311.278259	869.502930	1437.171021	-331.273254	638.593445	1022.017578	-533.407410	726.999329	1022.053650	-533.287109	568.218201	982.131592	-302.854645	822.212952	976.418152	-303.142487	864.631470	705.544617	-325.556885	891.232910	765.914063	-374.105713	849.223083	847.988831	-315.510437	570.229858	715.865906	-270.593994	520.704163	778.556519	-308.681885	586.922058	832.521729	-272.828339	567.341736	498.025757	-326.749298	616.915466	385.795563	-301.059387	592.622009	310.743683	-334.818848	618.801575	259.815125	-337.322876	858.299622	493.860992	-399.206024	820.454712	377.538300	-426.519745	840.286743	348.929413	-496.346985	804.765137	300.937866	-521.129578	809.906616	210.539185	-709.266418	750.286743	226.211975	-763.600464	604.995422	75.676872	-419.996460	644.385193	36.250877	-487.552551	608.279419	43.968204	-311.715576	686.444458	51.123951	-289.769501	830.781921	82.073486	-691.228455	767.994263	68.742683	-657.937683	925.537720	1066.976074	408.564636	921.516113	1055.170532	409.621338	922.364868	1056.208740	474.369965	925.273376	1067.685303	346.952942	920.803101	1055.949951	441.667511	0.000000	0.000000	0.000000	0.000000	0.000000	0.000000	-18.060160	12.092110	-1119.633301	1151.582764	12.613888	-1033.588989	-0.765251	11.979982	0.843711	1167.719727	12.577963	85.341805	0.000000	0.000000	0.000000	0.000000	0.000000	0.000000	0.000000	0.000000	0.000000	
